<svg xmlns="http://www.w3.org/2000/svg" viewBox="0 0 320 200" width="320" height="200">
  <rect width="320" height="200" fill="#FBF6EC" rx="8"/>
  <g transform="translate(120 8)">
    <rect x="0" y="0" width="80" height="166" rx="18" fill="#1A1A1A"/>
    <rect x="3.5" y="3.5" width="73" height="159" rx="15" fill="url(#gradIos)"/>
    <rect x="26" y="9" width="28" height="10" rx="5" fill="#000"/>
    <text x="13" y="18" font-family="JetBrains Mono, monospace" font-size="6.5" fill="#FFFFFF" font-weight="600">9:41</text>
    <g transform="translate(57 12)" fill="#FFFFFF">
      <rect x="0" y="2.2" width="1.7" height="3.2" rx="0.5"/>
      <rect x="2.7" y="1.1" width="1.7" height="4.3" rx="0.5"/>
      <rect x="5.4" y="0" width="1.7" height="5.4" rx="0.5"/>
      <rect x="8.9" y="1.1" width="6.6" height="3.6" rx="1"/>
    </g>
    <g transform="translate(8 30)">
      <rect x="0" y="0" width="64" height="22" rx="6" fill="#FFFFFF" opacity="0.96">
        <animate attributeName="opacity" values="0.92;1;0.92" dur="2.4s" repeatCount="indefinite"/>
      </rect>
      <rect x="3.5" y="4" width="14" height="14" rx="3.5" fill="#C46A52"/>
      <text x="10.5" y="14.5" font-family="Newsreader, Georgia, serif" font-style="italic" font-size="10" fill="#FFFFFF" text-anchor="middle" font-weight="700">A</text>
      <text x="22" y="11" font-family="Inter, sans-serif" font-size="5.8" font-weight="700" fill="#1A1A1A">Live Activity</text>
      <text x="22" y="17.5" font-family="Inter, sans-serif" font-size="5.2" fill="#666">Поезд · 12 мин</text>
      <text x="59" y="14.5" font-family="Inter, sans-serif" font-size="7.5" fill="#C46A52" text-anchor="end" font-weight="700">→</text>
      <circle cx="10.5" cy="11" r="9" fill="none" stroke="#C46A52" stroke-width="0.6" opacity="0">
        <animate attributeName="r" values="7;14;7" dur="2.2s" repeatCount="indefinite"/>
        <animate attributeName="opacity" values="0;0.45;0" dur="2.2s" repeatCount="indefinite"/>
      </circle>
    </g>
    <g transform="translate(11 132)">
      <rect x="0" y="0" width="11" height="11" rx="2.6" fill="#C46A52"/>
      <rect x="14.5" y="0" width="11" height="11" rx="2.6" fill="#FFFFFF" opacity="0.85"/>
      <rect x="29" y="0" width="11" height="11" rx="2.6" fill="#7BAF6B"/>
      <rect x="43.5" y="0" width="11" height="11" rx="2.6" fill="#FFFFFF" opacity="0.85"/>
    </g>
    <rect x="26" y="153" width="28" height="2.6" rx="1.3" fill="#1A1A1A" opacity="0.6"/>
  </g>
  <defs>
    <linearGradient id="gradIos" x1="0%" y1="0%" x2="0%" y2="100%">
      <stop offset="0%" stop-color="#7C6FB5">
        <animate attributeName="stop-color" values="#7C6FB5;#9580BC;#7C6FB5" dur="6s" repeatCount="indefinite"/>
      </stop>
      <stop offset="60%" stop-color="#C99B8E"/>
      <stop offset="100%" stop-color="#E5BAA0">
        <animate attributeName="stop-color" values="#E5BAA0;#F0C7AA;#E5BAA0" dur="6s" repeatCount="indefinite"/>
      </stop>
    </linearGradient>
  </defs>
</svg>
